# xmcd
#
# Track frame offsets:
#	150
#	15590
#	30518
#	45518
#	64379
#	77519
#	89749
#	101984
#	117684
#	131113
#	147084
#
# Disc length: 2162 seconds
#
# Revision: 1
# Processed by: cddbd v1.5.2PL0 Copyright (c) Steve Scherf et al.
# Submitted via: audiograbber 1.83.01
#
DISCID=9a08700b
DTITLE=T. Jae Christian - The vanishing breed
DYEAR=2007
DGENRE=Country
TTITLE0=The vanishing breed
TTITLE1=I've been down some roads
TTITLE2=The workin' man's way
TTITLE3=Another angel in heaven
TTITLE4=Grand tour
TTITLE5=Picture of me without you
TTITLE6=Yea, there is life after Beth
TTITLE7=Yard sale
TTITLE8=Love me back together
TTITLE9=I'm tired of being something
TTITLE10=I won't be over you at all
EXTD=
EXTT0=
EXTT1=
EXTT2=
EXTT3=
EXTT4=
EXTT5=
EXTT6=
EXTT7=
EXTT8=
EXTT9=
EXTT10=
PLAYORDER=
